#N canvas 827 239 527 327 12;
#X obj 598 231 osc~;
#X obj 555 400 *~;
#X obj 426 56 inlet~;
#X msg 641 115 -0.25;
#X obj 521 56 inlet~;
#X obj 480 281 adsr~ 1 \$1 0 \$1;
#X text 225 280 The first variable sets the resonance.;
#X obj 555 483 outlet~;
#X obj 741 158 / 10;
#X obj 741 130 + 1;
#X obj 708 231 line~;
#X obj 675 259 numbox~ 4 15 100 #E4E4E4 #4D4D4D 10 0 0 0;
#X obj 741 101 random 5;
#X obj 744 61 bng 25 250 50 0 empty empty empty 17 7 0 10 #e4e4e4 #4d4d4d #373737;
#X obj 648 15 loadbanger 2;
#X obj 799 67 delay 2000;
#X obj 630 281 *~;
#X msg 725 203 \$1 500;
#X connect 0 0 16 0;
#X connect 1 0 7 0;
#X connect 2 0 5 0;
#X connect 3 0 0 1;
#X connect 4 0 0 0;
#X connect 5 0 1 0;
#X connect 8 0 17 0;
#X connect 9 0 8 0;
#X connect 10 0 11 0;
#X connect 11 0 16 1;
#X connect 12 0 9 0;
#X connect 13 0 12 0;
#X connect 13 0 15 0;
#X connect 14 0 3 0;
#X connect 14 1 13 0;
#X connect 15 0 13 0;
#X connect 16 0 1 1;
#X connect 17 0 10 0;
