#N canvas 827 239 527 327 12;
#X obj 107 511 +~;
#X text 91 42 \$1 is the fundamental frequency \, the rest are scales of the 6 harmonics.;
#X obj 627 40 loadbang;
#X obj 108 284 osc~;
#X obj 418 284 osc~;
#X obj 624 284 osc~;
#X obj 846 284 osc~;
#X obj 1070 284 osc~;
#X obj 1294 284 osc~;
#X obj 107 565 outlet~;
#X obj 107 81 inlet;
#X msg 668 81 -0.25;
#X obj 1355 218 inlet~;
#X obj 1229 376 *~;
#X obj 1000 376 *~;
#X obj 771 376 *~;
#X obj 542 376 *~;
#X obj 313 376 *~;
#X obj 418 332 *~ 0.5;
#X obj 108 218 * 0.5;
#X obj 108 376 *~;
#X obj 213 332 *~ 0.5;
#X obj 418 218 * 1;
#X obj 624 332 *~ 0.417;
#X obj 846 332 *~ 0.333;
#X obj 1070 218 * 2;
#X obj 1070 332 *~ 0.25;
#X obj 1294 332 *~ 0.2;
#X obj 62 332 adsr~ 1 5000 0 5000;
#X obj 267 332 adsr~ 1 5000 0 5000;
#X obj 473 332 adsr~ 1 5000 0 5000;
#X obj 696 332 adsr~ 1 5000 0 5000;
#X obj 919 332 adsr~ 1 5000 0 5000;
#X obj 1142 332 adsr~ 1 5000 0 5000;
#X obj 624 218 * 1.183;
#X obj 846 218 * 1.506;
#X obj 1294 218 2.514;
#X connect 0 0 9 0;
#X connect 2 0 11 0;
#X connect 3 0 21 0;
#X connect 4 0 18 0;
#X connect 5 0 23 0;
#X connect 6 0 24 0;
#X connect 7 0 26 0;
#X connect 8 0 27 0;
#X connect 10 0 19 0;
#X connect 10 0 22 0;
#X connect 10 0 25 0;
#X connect 10 0 34 0;
#X connect 10 0 35 0;
#X connect 10 0 36 0;
#X connect 11 0 3 1;
#X connect 11 0 4 1;
#X connect 11 0 5 1;
#X connect 11 0 6 1;
#X connect 11 0 7 1;
#X connect 11 0 8 1;
#X connect 12 0 28 0;
#X connect 12 0 29 0;
#X connect 12 0 30 0;
#X connect 12 0 31 0;
#X connect 12 0 32 0;
#X connect 12 0 33 0;
#X connect 13 0 0 0;
#X connect 14 0 0 0;
#X connect 15 0 0 0;
#X connect 16 0 0 0;
#X connect 17 0 0 0;
#X connect 18 0 17 1;
#X connect 19 0 3 0;
#X connect 20 0 0 0;
#X connect 21 0 20 1;
#X connect 22 0 4 0;
#X connect 23 0 16 1;
#X connect 24 0 15 1;
#X connect 25 0 7 0;
#X connect 26 0 14 1;
#X connect 27 0 13 1;
#X connect 28 0 20 0;
#X connect 29 0 17 0;
#X connect 30 0 16 0;
#X connect 31 0 15 0;
#X connect 32 0 14 0;
#X connect 33 0 13 0;
#X connect 34 0 5 0;
#X connect 35 0 6 0;
#X connect 36 0 8 0;
