#N canvas 827 239 527 327 12;
#X obj 704 71 inlet~;
#X obj 125 265 expr~ $v1 * pow(1 / 3.0112 \, 2);
#X obj 323 265 expr~ $v1 * pow(3 / 3.0112 \, 2);
#X obj 516 265 expr~ $v1 * pow(5 / 3.0112 \, 2);
#X obj 710 265 expr~ $v1 * pow(7 / 3.0112 \, 2);
#X obj 904 265 expr~ $v1 * pow(9 / 3.0112 \, 2);
#X obj 1113 265 expr~ $v1 * pow(11 / 3.0112 \, 2);
#X obj 1314 265 expr~ $v1 * pow(13 / 3.0112 \, 2);
#X obj 1520 265 expr~ $v1 * pow(15 / 3.0112 \, 2);
#X obj 1720 265 expr~ $v1 * pow(17 / 3.0112 \, 2);
#X obj 1919 265 expr~ $v1 * pow(19 / 3.0112 \, 2);
#X obj 125 71 inlet~;
#X obj 904 315 adsr_res 1000;
#X obj 717 315 adsr_res 1500;
#X obj 1113 315 adsr_res 500;
#X obj 1314 315 adsr_res 400;
#X obj 1520 315 adsr_res 400;
#X obj 1720 315 adsr_res 300;
#X obj 1919 315 adsr_res 200;
#X obj 125 315 adsr_res 2000;
#X obj 323 315 adsr_res 2000;
#X obj 516 315 adsr_res 1500;
#X obj 1155 680 outlet~;
#X connect 0 0 12 0;
#X connect 0 0 13 0;
#X connect 0 0 14 0;
#X connect 0 0 15 0;
#X connect 0 0 16 0;
#X connect 0 0 17 0;
#X connect 0 0 18 0;
#X connect 0 0 19 0;
#X connect 0 0 20 0;
#X connect 0 0 21 0;
#X connect 1 0 19 1;
#X connect 2 0 20 1;
#X connect 3 0 21 1;
#X connect 4 0 13 1;
#X connect 5 0 12 1;
#X connect 6 0 14 1;
#X connect 7 0 15 1;
#X connect 8 0 16 1;
#X connect 9 0 17 1;
#X connect 10 0 18 1;
#X connect 11 0 1 0;
#X connect 11 0 2 0;
#X connect 11 0 3 0;
#X connect 11 0 4 0;
#X connect 11 0 5 0;
#X connect 11 0 6 0;
#X connect 11 0 8 0;
#X connect 11 0 9 0;
#X connect 11 0 10 0;
#X connect 12 0 22 0;
#X connect 13 0 22 0;
#X connect 14 0 22 0;
#X connect 15 0 22 0;
#X connect 16 0 22 0;
#X connect 17 0 22 0;
#X connect 18 0 22 0;
#X connect 19 0 22 0;
#X connect 20 0 22 0;
#X connect 21 0 22 0;
