#N canvas 827 239 527 327 12;
#X obj 357 523 osc~ 65;
#X obj 271 550 *~;
#X obj 311 602 clip~ -1 1;
#X obj 606 731 hsl 128 17 0 2 0 0 empty empty empty -2 -8 0 10 #e4e4e4 #4d4d4d #373737 0 1;
#X floatatom 396 767 5 0 0 0 - - - 12;
#X obj 311 806 *~;
#X obj 380 796 sig~;
#X text 630 756 gain;
#X text 411 427 modulator pitch;
#X text 378 42 https://www.youtube.com/watch?v=SCEHW_6iy7A;
#X obj 333 161 hsl 270 15 0 500 0 0 empty empty empty -2 -8 0 10 #e4e4e4 #4d4d4d #373737 0 1;
#X text 515 187 delay time;
#X floatatom 319 198 5 0 0 0 - - - 12;
#X obj 319 289 hip~ 40;
#X obj 271 460 +~;
#X obj 311 767 numbox~ 4 15 100 #E4E4E4 #4D4D4D 10 0 0 0;
#X obj 324 842 numbox~ 4 15 100 #E4E4E4 #4D4D4D 10 0 0 0;
#X obj 271 501 numbox~ 4 15 100 #E4E4E4 #4D4D4D 10 0 0 0;
#X obj 311 702 expr~ $v1 - 1.0/3 * pow($v1 \, 3);
#X obj 311 662 numbox~ 4 15 100 #E4E4E4 #4D4D4D 10 0 0 0;
#X obj 311 633 *~ -1;
#X obj 319 264 numbox~ 4 15 100 #E4E4E4 #4D4D4D 10 0 0 0;
#X obj 178 460 outlet~;
#X obj 178 273 inlet~;
#X obj 319 233 delread~ \$0_feedback 300;
#X obj 337 883 delwrite~ \$0_feedback 1000;
#X obj 327 107 inlet;
#X obj 837 114 inlet;
#X text 378 106 0 - 500;
#X text 882 113 0 - 2;
#X obj 357 431 mtof~;
#X obj 430 353 numbox~ 4 15 100 #E4E4E4 #4D4D4D 10 0 0 0;
#X text 692 113 0 - 127;
#X obj 652 114 inlet~;
#X obj 1344 183 osc~ 0.1;
#X obj 1280 212 +~ 1;
#X obj 1280 238 *~ 25;
#X obj 1209 290 +~ 10;
#X connect 0 0 1 1;
#X connect 1 0 2 0;
#X connect 2 0 20 0;
#X connect 3 0 4 0;
#X connect 4 0 6 0;
#X connect 5 0 16 0;
#X connect 6 0 5 1;
#X connect 10 0 12 0;
#X connect 12 0 24 0;
#X connect 13 0 14 1;
#X connect 13 0 22 0;
#X connect 14 0 17 0;
#X connect 15 0 5 0;
#X connect 16 0 25 0;
#X connect 17 0 1 0;
#X connect 18 0 15 0;
#X connect 19 0 18 0;
#X connect 20 0 19 0;
#X connect 21 0 13 0;
#X connect 23 0 14 0;
#X connect 24 0 21 0;
#X connect 26 0 10 0;
#X connect 27 0 3 0;
#X connect 30 0 0 0;
#X connect 31 0 30 0;
#X connect 33 0 31 0;
#X connect 34 0 35 0;
#X connect 35 0 36 0;
#X connect 36 0 37 0;
