#N canvas 0 25 1323 683 12;
#X obj 167 36 key, f 6;
#X floatatom 167 79 6 0 0 0 - - - 16;
#X obj 680 36 keyup;
#X floatatom 680 79 7 0 0 0 - - - 16;
#X msg 701 320 stop;
#X obj 182 541 spigot;
#X msg 202 486 1;
#X msg 167 486 0;
#X obj 203 513 tgl 15 0 empty empty empty 17 7 0 10 #fcfcfc #000000 #000000 0 1;
#X obj 167 178 t b b;
#X obj 42 223 loadbang;
#X obj 42 256 bng 23 250 50 0 empty empty empty 17 7 0 10 #fcfcfc #000000 #000000;
#X floatatom 181 664 5 0 0 0 - - - 0;
#X floatatom 682 664 5 0 0 0 - - - 0;
#X obj 181 714 outlet;
#X obj 682 714 outlet;
#X text 225 663 filtered key output;
#X text 727 663 filtered keyup output;
#X obj 680 352 delay 5;
#X obj 167 125 sel \$1, f 64;
#X obj 680 125 sel \$1, f 68;
#X obj 181 609 \$1;
#X obj 680 397 \$1;
#X text 42 44 This abstraction prevents a given key from firing multiple times in a single press., f 15;
#X connect 0 0 1 0;
#X connect 1 0 19 0;
#X connect 2 0 3 0;
#X connect 3 0 20 0;
#X connect 4 0 18 0;
#X connect 5 0 21 0;
#X connect 6 0 8 0;
#X connect 7 0 8 0;
#X connect 8 0 5 1;
#X connect 9 0 7 0;
#X connect 9 1 5 0;
#X connect 10 0 11 0;
#X connect 11 0 6 0;
#X connect 12 0 14 0;
#X connect 13 0 15 0;
#X connect 18 0 22 0;
#X connect 19 0 4 0;
#X connect 19 0 9 0;
#X connect 20 0 18 0;
#X connect 21 0 12 0;
#X connect 22 0 13 0;
#X connect 22 0 6 0;
