#N canvas 827 239 527 327 12;
#X obj 10 749 sig~;
#X obj 10 779 chime;
#X obj 60 714 tgl 25 0 empty empty empty 17 7 0 10 #e4e4e4 #4d4d4d #373737 0 1;
#X obj 60 749 sig~;
#X msg 185 664 0;
#X obj 130 560 spigot;
#X obj 152 528 tgl 25 0 empty empty empty 17 7 0 10 #e4e4e4 #4d4d4d #373737 0 1;
#X obj 36 608 spigot;
#X obj 58 576 tgl 25 0 empty empty empty 17 7 0 10 #e4e4e4 #4d4d4d #373737 0 1;
#X msg 63 682 1;
#X obj 142 749 sig~;
#X obj 142 779 chime;
#X obj 236 714 tgl 25 0 empty empty empty 17 7 0 10 #e4e4e4 #4d4d4d #373737 0 1;
#X obj 236 749 sig~;
#X msg 239 682 1;
#X obj 374 749 sig~;
#X obj 374 779 chime;
#X obj 424 714 tgl 25 0 empty empty empty 17 7 0 10 #e4e4e4 #4d4d4d #373737 0 1;
#X obj 424 749 sig~;
#X msg 549 664 0;
#X obj 494 560 spigot;
#X obj 516 528 tgl 25 0 empty empty empty 17 7 0 10 #e4e4e4 #4d4d4d #373737 0 1;
#X obj 400 608 spigot;
#X obj 422 576 tgl 25 0 empty empty empty 17 7 0 10 #e4e4e4 #4d4d4d #373737 0 1;
#X msg 427 682 1;
#X obj 506 749 sig~;
#X obj 506 779 chime;
#X obj 600 714 tgl 25 0 empty empty empty 17 7 0 10 #e4e4e4 #4d4d4d #373737 0 1;
#X obj 600 749 sig~;
#X msg 603 682 1;
#X obj 10 520 t b b b b b;
#X obj 374 520 t b b b b b;
#X obj 473 496 t b b;
#X obj 103 496 t b b;
#X obj 263 352 t b b;
#X obj 263 441 t b b;
#X obj 245 528 loadbanger 2;
#X msg 206 49 devices;
#X text 199 24 Click here to see in pd-window which ports are available;
#X text 274 56 Fill in the number of the available port after "open";
#X obj 206 134 comport 1 9600;
#X msg 526 98 close;
#X floatatom 131 171 5 0 0 0 - - - 12;
#X text 274 202 Numbers from 0 to 255 can be sent here.;
#X obj 11 391 t b b;
#X obj 206 204 sel 1 2;
#X obj 388 391 t b b;
#X obj 109 247 bng 25 250 50 0 empty empty empty 17 7 0 10 #e4e4e4 #4d4d4d #373737;
#X obj 308 247 bng 25 250 50 0 empty empty empty 17 7 0 10 #e4e4e4 #4d4d4d #373737;
#X obj 480 391 delay 5;
#X obj 103 391 delay 5;
#X obj -133 179 key_repeat_filter_abstraction 49;
#X obj 17 1147 spatialiser -0.5;
#X obj 17 1217 throw~ front;
#X obj 38 1191 throw~ back;
#X obj 374 1210 throw~ front;
#X obj 395 1184 throw~ back;
#X obj 149 1272 throw~ speaker1;
#X obj 168 1247 throw~ speaker2;
#X obj 192 1223 throw~ speaker3;
#X obj 220 1200 throw~ speaker4;
#X obj 506 1265 throw~ speaker1;
#X obj 525 1240 throw~ speaker2;
#X obj 549 1216 throw~ speaker3;
#X obj 577 1193 throw~ speaker4;
#X obj 117 1453 catch~ front;
#X obj 302 1453 catch~ back;
#X obj 54 1350 catch~ speaker1;
#X obj 195 1350 catch~ speaker2;
#X obj 222 1382 catch~ speaker3;
#X obj 412 1382 catch~ speaker4;
#X obj 506 1147 rev3~ 90 80 3000 100;
#X obj 374 1147 spatialiser 0.5;
#X obj 149 1147 rev3~ 90 80 3000 100;
#X msg 274 81 devicename /dev/ttyACM0;
#X msg 1196 682 0;
#X obj 1208 714 tgl 25 0 empty empty empty 17 7 0 10 #e4e4e4 #4d4d4d #373737 0 1;
#X obj 1208 749 sig~;
#X msg 1233 682 1;
#X obj 1112 951 throw~ front;
#X obj 1133 925 throw~ back;
#X obj 1244 1006 throw~ speaker1;
#X obj 1263 981 throw~ speaker2;
#X obj 1287 957 throw~ speaker3;
#X obj 1315 934 throw~ speaker4;
#X obj 1244 888 rev3~ 90 80 3000 100;
#X msg 859 682 0;
#X obj 878 714 tgl 25 0 empty empty empty 17 7 0 10 #e4e4e4 #4d4d4d #373737 0 1;
#X obj 878 749 sig~;
#X msg 902 682 1;
#X obj 782 951 throw~ front;
#X obj 803 925 throw~ back;
#X obj 914 1006 throw~ speaker1;
#X obj 933 981 throw~ speaker2;
#X obj 957 957 throw~ speaker3;
#X obj 985 934 throw~ speaker4;
#X obj 914 888 rev3~ 90 80 3000 100;
#X obj 782 888 spatialiser 0.5;
#X obj 951 247 delay 5;
#X obj 951 614 t b b;
#X obj 859 550 t b b b b;
#X obj 784 779 bell;
#X obj 1114 779 bell;
#X obj 1112 888 spatialiser -0.5;
#X obj 1633 268 hradio 80 1 0 3 empty empty empty 0 -8 0 10 #e4e4e4 #4d4d4d #373737 0;
#X obj 1695 31 loadbang;
#X msg 1697 65 0;
#X obj 568 614 t b b;
#X text 1705 235 Bell counter;
#X obj 632 652 send bellplus;
#X obj 183 619 t b b;
#X obj 263 652 send bellplus;
#X obj 48 643 t b b;
#X obj -105 688 send bellminus;
#X obj 412 643 t b b;
#X obj 304 688 send bellminus;
#X msg 1383 68 -1;
#X obj 1378 96 +;
#X obj 1537 31 receive bellplus;
#X obj 1382 31 receive bellminus;
#X floatatom 1532 170 4 0 0 0 - - - 16;
#X obj 1464 195 t f f;
#X obj 1532 96 +;
#X obj 1618 195 t f f;
#X msg 1539 68 2;
#X obj 1462 149 clip -1 2;
#X obj 1616 149 clip -1 2;
#X floatatom 1633 361 5 0 0 0 - - - 12;
#X text 93 1528 Change to 1 2 3 4;
#X obj 1633 447 send bellactivate;
#X obj 1633 387 == 2;
#X obj 263 618 spigot;
#X obj 263 582 tgl 25 0 empty empty empty 17 7 0 10 #e4e4e4 #4d4d4d #373737 0 1;
#X obj 263 560 r bellactivate;
#X obj 183 588 t b b;
#X obj 621 592 spigot;
#X obj 621 556 tgl 25 0 empty empty empty 17 7 0 10 #e4e4e4 #4d4d4d #373737 0 1;
#X obj 621 534 r bellactivate;
#X obj 558 576 t b b;
#X text 1822 352 Bell;
#X text 1717 352 <-- No Bell;
#X obj 84 1499 dac~ 1 1 2 2, f 50;
#X obj 374 1091 *~ 0.05;
#X obj 506 1091 *~ 0.05;
#X obj 859 247 t b b b;
#X obj 888 291 t b b b;
#X obj 888 375 send bellminus;
#X obj 902 349 send bellminus;
#X obj 925 321 pipe 500;
#X obj 1633 417 pipe 100;
#X obj 252 407 pipe 100;
#X obj 253 485 pipe 100;
#X msg 1114 596 240;
#X msg 784 588 320;
#X msg 506 721 120;
#X msg 142 721 120;
#X msg 374 721 160;
#X msg 10 721 180;
#X obj 471 975 distorter;
#X obj 394 1020 +~;
#X obj 123 968 distorter;
#X obj 46 1013 +~;
#X obj 17 1091 *~ 0.05;
#X obj 149 1091 *~ 0.05;
#X obj 520 878 r delay2;
#X obj 563 925 r gain2;
#X obj 520 1006 r volume2;
#X obj 156 878 r delay1;
#X obj 199 925 r gain1;
#X obj 168 1006 r volume1;
#X obj 1633 657 hradio 54 1 0 8 empty empty empty 0 -8 0 10 #e4e4e4 #4d4d4d #373737 0;
#X obj 1633 492 loadbang;
#X text 1786 589 Distortion phase;
#X text 1656 626 <-- Low Distortion;
#X text 1917 626 High Distortion -->;
#X floatatom 1633 730 5 0 0 0 - - - 12;
#X obj 1633 851 t f f;
#X obj 1712 1036 s delay2;
#X obj 1793 1036 s gain2;
#X obj 784 814 *~ 0.12;
#X obj 1114 814 *~ 0.12;
#X obj 2105 207 bng 77 250 50 0 empty empty empty 17 7 0 10 #e4e4e4 #4d4d4d #373737;
#X obj 1712 991 * 20;
#X obj 1917 1227 throw~ modulator2;
#X obj 175 901 catch~ modulator1;
#X obj 539 901 catch~ modulator2;
#X obj 1917 1161 line~;
#X obj 1917 1192 numbox~ 4 15 100 #E4E4E4 #4D4D4D 10 0 0 0;
#X obj 123 1041 *~ 0.3;
#X obj 471 1041 *~ 0.3;
#X obj 1633 820 clip 0 7;
#X obj 1712 931 t f f;
#X obj 2081 1162 line~;
#X obj 2081 1227 throw~ modulator1;
#X obj 1543 991 * 20;
#X obj 1618 991 pow 0.35;
#X obj 1543 931 t f f;
#X obj 1543 1036 s delay1;
#X obj 1618 1036 s gain1;
#X obj 1907 928 bng 25 250 50 0 empty empty empty 17 7 0 10 #e4e4e4 #4d4d4d #373737;
#X obj 1633 760 t f f b;
#X obj 1907 868 loadbang;
#X obj 1822 795 clip 1 7;
#X floatatom 1822 822 5 0 0 0 - - - 12;
#X obj 1822 844 !/ 5000;
#X floatatom 1822 868 5 0 0 0 - - - 12;
#X obj 2081 1192 numbox~ 4 15 100 #E4E4E4 #4D4D4D 10 0 0 0;
#X obj 1920 983 t b b;
#X obj 1917 1019 drunk 40 10;
#X obj 2081 1019 drunk 40 10;
#X msg 1917 1111 \$1 500;
#X msg 2081 1111 \$1 500;
#X obj 1958 934 delay 10000;
#X obj 1793 991 pow 0.35;
#X obj 1917 1076 + 20;
#X obj 2081 1076 + 20;
#X obj 1327 512 +;
#X floatatom 1481 586 4 0 0 0 - - - 16;
#X obj 1413 611 t f f;
#X obj 1481 512 +;
#X obj 1567 611 t f f;
#X obj 1327 417 receive distortionminus;
#X obj 1010 349 send distortionminus;
#X msg 1330 484 -1;
#X obj 1488 411 bng 25 250 50 0 empty empty empty 17 7 0 10 #e4e4e4 #4d4d4d #373737;
#X obj 1488 351 loadbang;
#X msg 1488 484 1;
#X obj 393 247 key_repeat_filter_abstraction 57;
#X obj 1411 565 clip -2 7;
#X obj 1565 565 clip -2 7;
#X obj 1539 417 delay 6000;
#X msg 1635 521 -2;
#X connect 0 0 1 0;
#X connect 1 0 161 0;
#X connect 1 0 160 0;
#X connect 2 0 3 0;
#X connect 3 0 1 1;
#X connect 4 0 2 0;
#X connect 4 0 12 0;
#X connect 5 0 134 0;
#X connect 6 0 5 1;
#X connect 7 0 112 0;
#X connect 8 0 7 1;
#X connect 9 0 2 0;
#X connect 10 0 11 0;
#X connect 11 0 161 0;
#X connect 11 0 160 0;
#X connect 12 0 13 0;
#X connect 13 0 11 1;
#X connect 14 0 12 0;
#X connect 15 0 16 0;
#X connect 16 0 158 0;
#X connect 16 0 159 0;
#X connect 17 0 18 0;
#X connect 18 0 16 1;
#X connect 19 0 17 0;
#X connect 19 0 27 0;
#X connect 20 0 138 0;
#X connect 21 0 20 1;
#X connect 22 0 114 0;
#X connect 23 0 22 1;
#X connect 24 0 17 0;
#X connect 25 0 26 0;
#X connect 26 0 158 0;
#X connect 26 0 159 1;
#X connect 27 0 28 0;
#X connect 28 0 26 1;
#X connect 29 0 27 0;
#X connect 30 0 157 0;
#X connect 30 1 7 0;
#X connect 30 2 5 0;
#X connect 30 3 155 0;
#X connect 30 4 35 0;
#X connect 31 0 156 0;
#X connect 31 1 22 0;
#X connect 31 2 20 0;
#X connect 31 3 154 0;
#X connect 31 4 34 0;
#X connect 32 0 23 0;
#X connect 32 1 21 0;
#X connect 33 0 8 0;
#X connect 33 1 6 0;
#X connect 34 0 33 0;
#X connect 34 1 150 0;
#X connect 35 0 151 0;
#X connect 35 1 32 0;
#X connect 36 0 8 0;
#X connect 36 1 23 0;
#X connect 37 0 40 0;
#X connect 40 0 42 0;
#X connect 41 0 40 0;
#X connect 42 0 45 0;
#X connect 44 0 30 0;
#X connect 44 1 50 0;
#X connect 45 0 47 0;
#X connect 45 1 48 0;
#X connect 46 0 31 0;
#X connect 46 1 49 0;
#X connect 47 0 44 0;
#X connect 48 0 46 0;
#X connect 49 0 19 0;
#X connect 50 0 4 0;
#X connect 51 0 47 0;
#X connect 52 0 53 0;
#X connect 52 1 54 0;
#X connect 65 0 141 0;
#X connect 65 0 141 1;
#X connect 66 0 141 2;
#X connect 66 0 141 3;
#X connect 67 0 141 0;
#X connect 68 0 141 1;
#X connect 69 0 141 2;
#X connect 70 0 141 3;
#X connect 71 0 61 0;
#X connect 71 1 62 0;
#X connect 71 2 63 0;
#X connect 71 3 64 0;
#X connect 72 0 55 0;
#X connect 72 1 56 0;
#X connect 73 0 57 0;
#X connect 73 1 58 0;
#X connect 73 2 59 0;
#X connect 73 3 60 0;
#X connect 74 0 40 0;
#X connect 75 0 76 0;
#X connect 76 0 77 0;
#X connect 77 0 102 1;
#X connect 78 0 76 0;
#X connect 85 0 81 0;
#X connect 85 1 82 0;
#X connect 85 2 83 0;
#X connect 85 3 84 0;
#X connect 86 0 87 0;
#X connect 87 0 88 0;
#X connect 88 0 101 1;
#X connect 89 0 87 0;
#X connect 96 0 92 0;
#X connect 96 1 93 0;
#X connect 96 2 94 0;
#X connect 96 3 95 0;
#X connect 97 0 90 0;
#X connect 97 1 91 0;
#X connect 98 0 99 0;
#X connect 99 0 86 0;
#X connect 99 1 75 0;
#X connect 100 0 89 0;
#X connect 100 1 78 0;
#X connect 100 2 153 0;
#X connect 100 3 152 0;
#X connect 101 0 179 0;
#X connect 102 0 180 0;
#X connect 103 0 79 0;
#X connect 103 1 80 0;
#X connect 104 0 127 0;
#X connect 105 0 106 0;
#X connect 106 0 120 0;
#X connect 107 0 29 0;
#X connect 107 1 109 0;
#X connect 110 0 14 0;
#X connect 110 1 111 0;
#X connect 112 0 9 0;
#X connect 112 1 113 0;
#X connect 114 0 24 0;
#X connect 114 1 115 0;
#X connect 116 0 117 0;
#X connect 117 0 125 0;
#X connect 118 0 124 0;
#X connect 119 0 116 0;
#X connect 120 0 121 0;
#X connect 120 0 123 0;
#X connect 121 0 117 1;
#X connect 121 1 104 0;
#X connect 122 0 126 0;
#X connect 123 0 122 1;
#X connect 123 1 104 0;
#X connect 124 0 122 0;
#X connect 125 0 120 0;
#X connect 126 0 120 0;
#X connect 127 0 130 0;
#X connect 130 0 149 0;
#X connect 131 0 144 0;
#X connect 132 0 131 1;
#X connect 133 0 132 0;
#X connect 134 0 110 0;
#X connect 134 1 131 0;
#X connect 135 0 144 0;
#X connect 136 0 135 1;
#X connect 137 0 136 0;
#X connect 138 0 107 0;
#X connect 138 1 135 0;
#X connect 142 0 72 0;
#X connect 142 0 71 0;
#X connect 143 0 72 0;
#X connect 143 0 71 0;
#X connect 144 0 100 0;
#X connect 144 1 98 0;
#X connect 144 2 145 0;
#X connect 145 0 146 0;
#X connect 145 1 147 0;
#X connect 145 2 148 0;
#X connect 148 0 222 0;
#X connect 149 0 129 0;
#X connect 150 0 33 0;
#X connect 151 0 32 0;
#X connect 152 0 102 0;
#X connect 153 0 101 0;
#X connect 154 0 25 0;
#X connect 155 0 10 0;
#X connect 156 0 15 0;
#X connect 157 0 0 0;
#X connect 158 0 189 0;
#X connect 159 0 142 0;
#X connect 160 0 188 0;
#X connect 161 0 162 0;
#X connect 162 0 52 0;
#X connect 162 0 73 0;
#X connect 163 0 52 0;
#X connect 163 0 73 0;
#X connect 164 0 158 1;
#X connect 165 0 158 3;
#X connect 166 0 189 1;
#X connect 167 0 160 1;
#X connect 168 0 160 3;
#X connect 169 0 188 1;
#X connect 170 0 175 0;
#X connect 171 0 231 0;
#X connect 175 0 200 0;
#X connect 176 0 196 0;
#X connect 176 1 191 0;
#X connect 179 0 97 0;
#X connect 179 0 96 0;
#X connect 180 0 85 0;
#X connect 180 0 103 0;
#X connect 181 0 106 0;
#X connect 181 0 231 0;
#X connect 182 0 177 0;
#X connect 184 0 160 2;
#X connect 185 0 158 2;
#X connect 186 0 187 0;
#X connect 187 0 183 0;
#X connect 188 0 163 0;
#X connect 189 0 143 0;
#X connect 190 0 176 0;
#X connect 191 0 182 0;
#X connect 191 1 213 0;
#X connect 192 0 206 0;
#X connect 194 0 197 0;
#X connect 195 0 198 0;
#X connect 196 0 194 0;
#X connect 196 1 195 0;
#X connect 199 0 207 0;
#X connect 199 0 212 0;
#X connect 200 0 190 0;
#X connect 200 1 202 0;
#X connect 201 0 199 0;
#X connect 202 0 203 0;
#X connect 203 0 204 0;
#X connect 204 0 205 0;
#X connect 205 0 212 1;
#X connect 206 0 193 0;
#X connect 207 0 208 0;
#X connect 207 1 209 0;
#X connect 208 0 214 0;
#X connect 209 0 215 0;
#X connect 210 0 186 0;
#X connect 211 0 192 0;
#X connect 212 0 199 0;
#X connect 213 0 178 0;
#X connect 214 0 210 0;
#X connect 215 0 211 0;
#X connect 216 0 228 0;
#X connect 217 0 218 0;
#X connect 217 0 220 0;
#X connect 218 0 216 1;
#X connect 219 0 229 0;
#X connect 220 0 219 1;
#X connect 220 1 170 0;
#X connect 221 0 223 0;
#X connect 223 0 216 0;
#X connect 224 0 226 0;
#X connect 224 0 230 0;
#X connect 225 0 224 0;
#X connect 226 0 219 0;
#X connect 227 0 48 0;
#X connect 228 0 217 0;
#X connect 229 0 217 0;
#X connect 230 0 224 0;
#X connect 231 0 217 0;
